HIERARCHY
ROOT Hips
{
	OFFSET -10.056300 7.733760 -472.550000
	CHANNELS 6 Xposition Yposition Zposition Zrotation Yrotation Xrotation 
	JOINT Spine
	{
		OFFSET 0.000000 0.000000 0.000000
		CHANNELS 3 Zrotation Yrotation Xrotation
		JOINT Spine1
		{
			OFFSET 19.000000 0.000000 0.000000
			CHANNELS 3 Zrotation Yrotation Xrotation
			JOINT Neck
			{
				OFFSET 22.500000 0.600000 0.000000
				CHANNELS 3 Zrotation Yrotation Xrotation
				JOINT Head
				{
					OFFSET 14.000000 0.030878 0.000000
					CHANNELS 3 Zrotation Yrotation Xrotation
					End Site
					{
						OFFSET 17.000000 0.000000 0.000000
					}
				}
			}
			JOINT LeftShoulder
			{
				OFFSET 19.800000 3.700000 4.300000
				CHANNELS 3 Zrotation Yrotation Xrotation
				JOINT LeftArm
				{
					OFFSET 8.000000 0.000000 0.000000
					CHANNELS 3 Zrotation Yrotation Xrotation
					JOINT LeftForeArm
					{
						OFFSET 15.200000 0.000000 0.000000
						CHANNELS 3 Zrotation Yrotation Xrotation
						JOINT LeftHand
						{
							OFFSET 17.800000 0.000000 0.000000
							CHANNELS 3 Zrotation Yrotation Xrotation
							End Site
							{
								OFFSET 7.200000 0.000000 0.000000
							}
						}
					}
				}
			}
			JOINT RightShoulder
			{
				OFFSET 19.800000 3.700000 -4.300000
				CHANNELS 3 Zrotation Yrotation Xrotation
				JOINT RightArm
				{
					OFFSET 8.000000 0.000000 0.151654
					CHANNELS 3 Zrotation Yrotation Xrotation
					JOINT RightForeArm
					{
						OFFSET 15.200000 0.000000 0.000000
						CHANNELS 3 Zrotation Yrotation Xrotation
						JOINT RightHand
						{
							OFFSET 17.800000 0.000000 0.000000
							CHANNELS 3 Zrotation Yrotation Xrotation
							End Site
							{
								OFFSET 7.200000 0.000000 0.000000
							}
						}
					}
				}
			}
		}
	}
	JOINT LeftUpLeg
	{
		OFFSET 5.984250 -7.666000 4.788790
		CHANNELS 3 Zrotation Yrotation Xrotation
		JOINT LeftLeg
		{
			OFFSET 16.000000 0.000000 0.000000
			CHANNELS 3 Zrotation Yrotation Xrotation
			JOINT LeftFoot
			{
				OFFSET 18.000000 0.000000 0.000000
				CHANNELS 3 Zrotation Yrotation Xrotation
				End Site
				{
					OFFSET 0.000000 -10.800000 0.000000
				}
			}
		}
	}
	JOINT RightUpLeg
	{
		OFFSET 5.984250 -7.665980 -4.788790
		CHANNELS 3 Zrotation Yrotation Xrotation
		JOINT RightLeg
		{
			OFFSET 16.000000 0.000000 0.000000
			CHANNELS 3 Zrotation Yrotation Xrotation
			JOINT RightFoot
			{
				OFFSET 18.000000 0.000000 0.000000
				CHANNELS 3 Zrotation Yrotation Xrotation
				End Site
				{
					OFFSET 0.000000 -10.800000 0.000000
				}
			}
		}
	}
	JOINT Tail
	{
		OFFSET 6.836960 -0.722574 0.000000
		CHANNELS 3 Zrotation Yrotation Xrotation
		JOINT Tail1
		{
			OFFSET 12.000000 0.000000 0.000000
			CHANNELS 3 Zrotation Yrotation Xrotation
			End Site
			{
				OFFSET 12.000000 0.000000 0.000000
			}
		}
	}
}
MOTION
Frames: 5
Frame Time: 0.033333
-41.917095 -2.472549 15.395350 -155.944870 -13.896621 165.006104 -153.328400 -13.808953 -9.175190 -23.513250 2.475260 -9.684412 -98.416267 -62.483509 100.383621 -88.294991 9.288914 -112.181297 59.143703 -36.380150 -96.607544 -94.416252 -35.727432 -153.116638 -128.591095 74.549240 -58.688351 53.251980 -19.003227 -7.803724 54.628033 34.882065 -93.122253 73.849106 -51.196609 60.819294 97.480980 -25.087585 -93.332001 8.302514 40.110500 -5.456447 -118.807556 -7.612167 -22.885927 139.670715 -15.934026 162.943481 168.663208 -17.937109 -59.215019 -126.379135 -32.403419 53.114494 -152.957657 40.705166 31.395472 -93.066849 33.485394 -5.146714 -16.113436 -28.432400 -106.586937 2.814619 14.234882 -84.275879 
-41.203423 -2.888119 15.721126 -156.220093 -20.096668 163.949554 -152.156250 -18.069822 -11.521563 -30.532959 18.173092 -13.718766 -93.171684 -53.808826 94.131393 -82.524620 -0.206487 -113.565041 55.742538 -35.084373 -93.736923 -97.772102 -36.517349 -151.205811 -127.013290 73.843773 -58.839912 51.497890 -8.959391 -8.468947 55.692131 32.451527 -94.501602 70.674118 -50.634670 63.515339 99.001160 -24.907017 -92.581459 7.616974 42.481102 -8.466269 -122.003960 -9.186965 -22.625973 142.387939 -18.569294 158.996658 167.998657 -19.669930 -58.431412 -124.085175 -34.284100 51.446087 -145.289032 37.803543 33.028687 -95.851479 32.079094 -5.082903 -23.539167 -16.406610 -100.777565 6.233638 14.753373 -96.281387 
-40.544643 -3.235413 16.021130 -155.432358 -27.023487 162.391739 -153.064438 -20.529745 -12.718999 -35.450279 31.568348 -18.244444 -92.884636 -45.950459 94.166252 -69.793091 -10.326294 -113.594582 54.208424 -33.748867 -91.577744 -100.010590 -36.769897 -150.287109 -129.554779 68.909081 -64.713455 55.075695 -1.338304 -9.998448 56.718746 30.731304 -95.698250 68.711136 -50.930561 66.180908 102.349937 -23.276665 -92.019768 -1.641482 41.053867 -15.991475 -124.682625 -10.119870 -21.559813 145.354004 -21.962526 154.918365 168.604599 -20.179054 -58.090611 -123.850761 -34.347569 52.362873 -137.833969 34.525063 36.733410 -96.526489 30.930340 -5.953380 -32.699387 -3.562604 -98.384583 9.429902 16.333998 -104.349205 
-40.046902 -3.656112 16.278345 -153.841812 -33.375927 160.721664 -156.285538 -21.341537 -12.295904 -36.510849 42.249542 -21.243689 -93.203735 -39.397640 96.700699 -54.613869 -17.868542 -113.432434 51.627430 -31.386421 -88.805130 -103.102539 -37.888344 -149.144165 -136.920639 62.957703 -75.385521 67.364670 -4.123710 -11.619830 57.691074 30.731180 -95.369514 66.360977 -51.921616 69.419807 106.216095 -19.842716 -92.683372 -3.677390 38.551155 -19.118343 -126.195168 -10.045169 -20.471281 148.343765 -26.578575 151.088669 170.506119 -16.854670 -59.882156 -126.193108 -33.294102 55.542728 -130.720886 30.754660 41.110741 -91.944305 30.196375 -9.390194 -42.642075 8.141053 -98.817009 11.297431 17.985159 -110.305237 
-39.704117 -3.944432 16.740314 -152.611435 -38.020805 159.679489 -160.842300 -20.175699 -10.769701 -34.217350 50.603909 -21.397066 -90.932716 -35.466404 99.495010 -39.206757 -15.800142 -115.149254 48.557529 -28.698574 -85.782806 -104.494919 -39.256546 -148.915680 -144.603683 56.387905 -86.164574 77.371384 -9.985709 -15.305115 58.613457 31.498423 -93.764259 67.530518 -52.790436 68.550362 111.321220 -15.610736 -94.942429 -1.466519 37.387905 -18.787455 -126.524345 -8.948068 -19.818924 151.447250 -31.529993 147.963699 173.016159 -11.624363 -60.725590 -128.794296 -31.426594 59.396088 -125.842102 26.856047 45.929623 -89.251587 31.536280 -10.083124 -51.516823 16.453451 -101.773613 11.827766 19.094601 -114.969604 
